<svg width="12" height="11" viewBox="0 0 12 11" fill="none" xmlns="http://www.w3.org/2000/svg">
<path d="M4.38636 0C6.76789 0 8.69851 1.92082 8.69851 4.29026C8.69851 5.33458 8.32347 6.29176 7.7001 7.03573L10.9358 10.2549C11.0889 10.4072 11.0889 10.6541 10.9358 10.8064C10.7997 10.9418 10.5885 10.9569 10.4357 10.8516L10.3814 10.8064L7.14583 7.58719C6.39806 8.2074 5.43601 8.58053 4.38636 8.58053C2.00483 8.58053 0.0742188 6.65971 0.0742188 4.29026C0.0742188 1.92082 2.00483 0 4.38636 0ZM4.38636 0.780048C2.43784 0.780048 0.858245 2.35163 0.858245 4.29026C0.858245 6.2289 2.43784 7.80048 4.38636 7.80048C6.33489 7.80048 7.91448 6.2289 7.91448 4.29026C7.91448 2.35163 6.33489 0.780048 4.38636 0.780048Z" fill="#999999"/>
</svg>
